<?xml version="1.0" encoding="UTF-8"?><svg id="Layer_2" xmlns="http://www.w3.org/2000/svg" xmlns:xlink="http://www.w3.org/1999/xlink" viewBox="0 0 517.26 898.98"><defs><clipPath id="clippath"><rect width="517.26" height="898.98" style="fill:none;"/></clipPath></defs><g id="Layer_1-2"><g style="clip-path:url(#clippath);"><g id="Group_780"><path id="Path_1468" d="m446.48,249.24c0,104.03-84.34,188.37-188.37,188.37s-188.37-84.34-188.37-188.37c0-104.03,84.33-188.37,188.36-188.37,104.03,0,188.37,84.34,188.37,188.37" style="fill:#001f45;"/><circle id="Ellipse_14" cx="258.11" cy="249.24" r="188.37" style="fill:none; stroke:#001f45; stroke-miterlimit:10; stroke-width:.67px;"/><path id="Path_1469" d="m429.65,249.24c0,94.74-76.8,171.53-171.53,171.53s-171.53-76.8-171.53-171.53c0-94.74,76.8-171.53,171.53-171.53,94.74,0,171.53,76.8,171.53,171.53" style="fill:#90999d;"/><circle id="Ellipse_15" cx="258.11" cy="249.24" r="171.53" style="fill:none; stroke:#001f45; stroke-miterlimit:10; stroke-width:.67px;"/><path id="Path_1470" d="m414.22,249.25c0,86.22-69.89,156.11-156.11,156.11s-156.11-69.89-156.11-156.11,69.89-156.11,156.11-156.11c86.22,0,156.11,69.89,156.11,156.11h0" style="fill:#005f66;"/><circle id="Ellipse_16" cx="258.12" cy="249.24" r="156.11" style="fill:none; stroke:#001f45; stroke-miterlimit:10; stroke-width:.67px;"/><path id="Path_1471" d="m397.39,249.24c0,76.91-62.35,139.27-139.27,139.27s-139.27-62.35-139.27-139.27,62.35-139.27,139.27-139.27h0c76.91,0,139.27,62.35,139.27,139.27" style="fill:#fff;"/><path id="Path_1472" d="m397.39,249.24c0,76.91-62.35,139.27-139.27,139.27s-139.27-62.35-139.27-139.27,62.35-139.27,139.27-139.27h0c76.91,0,139.27,62.35,139.27,139.27Z" style="fill:none; stroke:#001f45; stroke-miterlimit:10; stroke-width:.67px;"/><path id="Path_1473" d="m331.74,305.69l184.49,28.94v-163.35l-188.29,29.55c-4.92-6.25-10.66-11.81-17.05-16.54L339.79,0h-163.36l28.91,184.28c-6.39,4.73-12.13,10.29-17.05,16.54L0,171.28v163.35l184.49-28.94c6.74,9.91,15.39,18.36,25.46,24.85l-33.51,382.33h163.35l-33.5-382.33c10.07-6.5,18.72-14.95,25.46-24.85" style="fill:#001f45;"/><path id="Path_1474" d="m322.12,298.99l180.23,25.16v-142.03l-183.53,25.68c-4.28-5.43-9.27-10.27-14.82-14.38l25.14-177.18h-142.03l25.13,177.18c-5.56,4.11-10.54,8.95-14.82,14.38L13.88,182.13v142.03l180.23-25.16c5.85,8.61,13.38,15.96,22.13,21.61l-29.13,376.03h142.03l-29.13-376.03c8.75-5.65,16.27-13,22.13-21.61" style="fill:#fff;"/><path id="Path_1475" d="m33.39,242.35h2.42v10.15h12.36v-10.17h2.42v24.27h-2.42v-11.71h-12.36v11.71h-2.42v-24.24Z" style="fill:#005f66;"/><path id="Path_1476" d="m66.41,242.35l11.32,24.26h-2.62l-3.81-7.98h-10.46l-3.78,7.98h-2.7l11.46-24.26h.6Zm-.3,5.15l-4.16,8.78h8.3l-4.14-8.78Z" style="fill:#005f66;"/><path id="Path_1477" d="m81.61,242.35h4.83c1.82-.06,3.65.05,5.46.33,1.38.29,2.62,1.04,3.51,2.12.92,1.13,1.4,2.55,1.36,4,.03,1.22-.28,2.43-.91,3.49-.63,1.01-1.56,1.81-2.66,2.27-1.53.58-3.15.84-4.78.79l8.72,11.27h-3l-8.72-11.27h-1.36v11.24h-2.42l-.02-24.24Zm2.42,2.37v8.23l4.18.03c1.22.06,2.43-.09,3.6-.45.75-.28,1.39-.8,1.82-1.48.44-.68.66-1.47.65-2.27,0-.79-.22-1.56-.66-2.22-.41-.65-1.02-1.14-1.73-1.43-1.16-.35-2.36-.49-3.57-.43l-4.29.02Z" style="fill:#005f66;"/><path id="Path_1478" d="m100.88,266.6l3.47-24.26h.4l9.86,19.91,9.77-19.91h.4l3.49,24.26h-2.38l-2.4-17.35-8.59,17.35h-.62l-8.68-17.48-2.38,17.48h-2.35Z" style="fill:#005f66;"/><path id="Path_1479" d="m144.58,241.74c3.45-.09,6.79,1.24,9.23,3.68,5.01,4.96,5.05,13.03.09,18.04-2.41,2.43-5.69,3.8-9.12,3.78-3.41.07-6.7-1.27-9.09-3.7-2.42-2.34-3.77-5.57-3.71-8.94-.02-2.27.57-4.51,1.69-6.48,2.22-3.94,6.39-6.37,10.91-6.36m.11,2.36c-3.67.03-7.04,2.01-8.87,5.18-.91,1.61-1.38,3.44-1.36,5.3-.04,5.64,4.49,10.24,10.13,10.28.03,0,.06,0,.1,0,1.83.01,3.64-.46,5.23-1.36,1.57-.88,2.86-2.18,3.75-3.75.91-1.61,1.38-3.43,1.36-5.28.02-1.83-.45-3.64-1.36-5.22-.9-1.56-2.21-2.85-3.79-3.74-1.57-.92-3.36-1.4-5.19-1.4" style="fill:#005f66;"/><path id="Path_1480" d="m162.39,266.6v-24.26h.53l16.15,18.6v-18.6h2.39v24.26h-.53l-16.01-18.37v18.37h-2.52Z" style="fill:#005f66;"/><path id="Path_1481" d="m185.45,242.35h2.79l6.21,10,6.11-10h2.8l-7.68,12.67v11.59h-2.39v-11.59l-7.84-12.67Z" style="fill:#005f66;"/><path id="Path_1482" d="m226.05,242.35h12.16v2.37h-9.73v7.61h9.73v2.37h-9.73v11.89h-2.42v-24.24Z" style="fill:#005f66;"/><path id="Path_1483" d="m252.35,242.35l11.32,24.26h-2.62l-3.81-7.98h-10.46l-3.78,7.98h-2.68l11.46-24.26h.58Zm-.3,5.15l-4.16,8.78h8.3l-4.14-8.78Z" style="fill:#005f66;"/><rect id="Rectangle_347" x="267.07" y="242.35" width="2.42" height="24.26" style="fill:#005f66;"/><path id="Path_1484" d="m272.64,244.73v-2.37h13.29v2.37h-5.41v21.87h-2.47v-21.89h-5.41Z" style="fill:#005f66;"/><path id="Path_1485" d="m289.4,242.35h2.42v10.15h12.35v-10.17h2.42v24.27h-2.42v-11.71h-12.35v11.71h-2.42v-24.24Z" style="fill:#005f66;"/><rect id="Rectangle_348" x="330.86" y="242.35" width="2.42" height="24.26" style="fill:#005f66;"/><path id="Path_1486" d="m338.86,266.6v-24.26h.53l16.15,18.6v-18.6h2.39v24.26h-.55l-16.01-18.37v18.37h-2.5Z" style="fill:#005f66;"/><path id="Path_1487" d="m361.42,244.73v-2.37h13.29v2.37h-5.39v21.87h-2.47v-21.89h-5.43Z" style="fill:#005f66;"/><path id="Path_1488" d="m378.23,242.35h13.9v2.37h-11.48v7.61h11.37v2.37h-11.37v9.55h11.37v2.37h-13.81l.02-24.27Z" style="fill:#005f66;"/><path id="Path_1489" d="m419.73,246.43l-1.88,1.78c-1.28-1.28-2.78-2.31-4.44-3.03-1.48-.66-3.09-1.01-4.71-1.03-1.91,0-3.79.48-5.46,1.4-1.66.87-3.04,2.19-4,3.8-.93,1.53-1.42,3.28-1.42,5.07,0,1.84.51,3.64,1.47,5.21.97,1.64,2.38,2.98,4.06,3.87,1.74.94,3.69,1.43,5.67,1.41,2.29.07,4.54-.68,6.33-2.11,1.69-1.35,2.79-3.31,3.06-5.46h-7.73v-2.34h10.46c.15,3.31-1.06,6.53-3.34,8.93-2.37,2.27-5.57,3.46-8.85,3.31-4.07.18-7.99-1.51-10.66-4.59-1.98-2.26-3.06-5.18-3.02-8.18-.01-2.26.59-4.47,1.73-6.41,1.13-1.95,2.77-3.56,4.75-4.65,2.09-1.13,4.44-1.71,6.82-1.67,1.99-.01,3.96.37,5.81,1.11,1.97.85,3.77,2.06,5.31,3.57" style="fill:#005f66;"/><path id="Path_1490" d="m425.91,242.35h4.83c1.82-.06,3.65.05,5.46.33,1.38.29,2.62,1.04,3.51,2.12.92,1.13,1.4,2.55,1.36,4,.03,1.22-.28,2.43-.91,3.49-.63,1.01-1.56,1.81-2.66,2.27-1.53.58-3.15.84-4.78.79l8.72,11.27h-3l-8.72-11.27h-1.36v11.24h-2.43l-.02-24.24Zm2.43,2.37v8.23l4.18.03c1.22.06,2.43-.09,3.6-.45.75-.28,1.39-.8,1.82-1.48.44-.68.66-1.47.65-2.27,0-.79-.22-1.56-.66-2.22-.41-.65-1.02-1.14-1.73-1.43-1.16-.35-2.36-.49-3.57-.43l-4.28.02Z" style="fill:#005f66;"/><rect id="Rectangle_349" x="445.93" y="242.35" width="2.42" height="24.26" style="fill:#005f66;"/><path id="Path_1491" d="m451.5,244.73v-2.37h13.29v2.37h-5.39v21.87h-2.47v-21.89h-5.43Z" style="fill:#005f66;"/><path id="Path_1492" d="m466.38,242.35h2.79l6.21,10,6.11-10h2.8l-7.68,12.67v11.59h-2.39v-11.59l-7.84-12.67Z" style="fill:#005f66;"/><path id="Path_1493" d="m34.27,766.55l-7.52,6.64c-1.64-3.03-4.64-5.08-8.06-5.51-1.18-.05-2.35.33-3.27,1.07-.77.57-1.24,1.45-1.27,2.41.01.92.33,1.82.91,2.54,2.31,2.46,4.8,4.75,7.44,6.85,3.87,3.24,6.22,5.28,7.05,6.13,1.8,1.72,3.28,3.74,4.38,5.96.87,1.95,1.31,4.07,1.29,6.21.12,4.1-1.54,8.05-4.55,10.84-3.22,2.93-7.47,4.47-11.82,4.28-3.51.08-6.97-.89-9.93-2.79-3.14-2.24-5.64-5.27-7.24-8.77l8.53-5.15c2.57,4.71,5.52,7.07,8.86,7.07,1.6.05,3.17-.49,4.4-1.52,1.1-.84,1.75-2.14,1.78-3.52-.04-1.33-.51-2.6-1.34-3.64-1.77-2.05-3.75-3.91-5.91-5.55-4.22-3.14-8-6.83-11.26-10.97-1.59-2.26-2.48-4.94-2.54-7.7-.03-3.63,1.51-7.1,4.23-9.51,2.82-2.65,6.58-4.08,10.46-3.97,2.65,0,5.25.63,7.6,1.85,3.01,1.74,5.66,4.02,7.82,6.74" style="fill:#fff;"/><path id="Path_1494" d="m45.59,758.65h9.89v14.55h5.87v8.52h-5.87v30.91h-9.89v-30.91h-5.08v-8.52h5.08v-14.55Z" style="fill:#fff;"/><path id="Path_1495" d="m72.65,802.29c1.51-.02,2.97.57,4.02,1.65,1.09,1.04,1.69,2.5,1.67,4.01-.18,3.14-2.87,5.54-6,5.36-2.89-.16-5.2-2.47-5.36-5.36-.02-1.51.58-2.96,1.67-4.01,1.06-1.08,2.51-1.68,4.02-1.65" style="fill:#fff;"/><path id="Path_1496" d="m160.07,768.67l-7.1,6.77c-4.09-4.76-10.02-7.55-16.3-7.66-9.86-.14-17.97,7.75-18.11,17.61,0,.16,0,.33,0,.49-.06,3.3.74,6.57,2.32,9.47,1.53,2.74,3.8,4.99,6.56,6.5,2.88,1.59,6.13,2.4,9.42,2.36,2.78.03,5.53-.53,8.08-1.65,3.01-1.52,5.73-3.55,8.04-6.01l6.88,7.18c-3.2,3.33-6.99,6.04-11.17,8-3.81,1.54-7.89,2.3-12,2.23-7.58.28-14.94-2.57-20.35-7.88-5.32-5.35-8.19-12.67-7.92-20.21-.09-4.96,1.15-9.86,3.61-14.17,2.47-4.2,6.05-7.65,10.33-9.97,4.42-2.5,9.41-3.79,14.48-3.77,8.93.03,17.41,3.94,23.24,10.71" style="fill:#fff;"/><path id="Path_1497" d="m197.57,773.18h9.9v39.44h-9.9v-4.17c-1.68,1.67-3.65,3.01-5.81,3.97-2,.82-4.15,1.23-6.32,1.21-5.05.02-9.87-2.13-13.22-5.91-3.73-3.98-5.74-9.28-5.58-14.73-.22-5.5,1.72-10.87,5.4-14.97,3.31-3.76,8.1-5.9,13.11-5.84,2.29-.01,4.56.44,6.66,1.34,2.16.95,4.12,2.32,5.76,4.02v-4.37Zm-10.4,8.12c-2.89-.07-5.67,1.11-7.62,3.25-2.06,2.27-3.16,5.26-3.04,8.32-.11,3.1.99,6.12,3.09,8.41,1.94,2.15,4.72,3.35,7.61,3.3,2.92.08,5.74-1.11,7.73-3.25,2.1-2.32,3.21-5.37,3.07-8.5.13-3.08-.97-6.08-3.07-8.34-2.02-2.11-4.85-3.27-7.77-3.18" style="fill:#fff;"/><path id="Path_1498" d="m219.27,758.65h9.89v14.55h5.86v8.52h-5.86v30.91h-9.9v-30.91h-5.07v-8.52h5.08v-14.55Z" style="fill:#fff;"/><path id="Path_1499" d="m240.96,757.96h9.82v19.21c1.74-1.54,3.71-2.81,5.84-3.75,1.88-.82,3.9-1.24,5.95-1.25,3.72-.08,7.31,1.39,9.9,4.06,2.48,2.85,3.72,6.57,3.44,10.33v26.06h-9.75v-17.28c.12-3.11-.1-6.22-.65-9.28-.31-1.43-1.09-2.71-2.23-3.64-1.13-.82-2.5-1.24-3.9-1.2-1.92-.04-3.77.68-5.17,1.99-1.52,1.48-2.56,3.38-2.99,5.46-.4,2.69-.55,5.4-.45,8.12v15.84h-9.82l.02-54.69Z" style="fill:#fff;"/><path id="Path_1500" d="m325.58,795.77h-31.79c.35,2.61,1.66,4.99,3.68,6.69,2.17,1.71,4.87,2.59,7.63,2.48,3.58.06,7.02-1.34,9.55-3.88l8.34,3.91c-1.89,2.78-4.46,5.04-7.46,6.54-3.24,1.49-6.77,2.21-10.33,2.12-5.63.22-11.1-1.9-15.12-5.86-3.88-3.88-5.99-9.18-5.84-14.66-.18-5.58,1.92-11,5.81-15,3.81-3.95,9.11-6.11,14.59-5.96,5.66-.22,11.16,1.95,15.15,5.96,4,4.25,6.1,9.93,5.84,15.75l-.05,1.9Zm-9.9-7.79c-.64-2.18-2-4.07-3.87-5.36-1.95-1.39-4.3-2.11-6.7-2.07-2.61-.05-5.17.77-7.27,2.32-1.61,1.38-2.86,3.13-3.64,5.11h21.48Z" style="fill:#fff;"/><path id="Path_1501" d="m331.87,773.18h8.48v4.96c.79-1.8,2.05-3.34,3.66-4.46,1.48-1,3.22-1.53,5-1.52,1.4.03,2.78.38,4.03,1.01l-3.09,8.52c-.88-.5-1.85-.79-2.86-.87-1.72.13-3.22,1.23-3.86,2.83-1.33,3.54-1.87,7.32-1.58,11.09l.04,1.92v15.95h-9.82v-39.44Z" style="fill:#fff;"/><path id="Path_1502" d="m362.36,756.95c1.69-.02,3.3.66,4.46,1.89,1.21,1.2,1.88,2.84,1.86,4.55.03,1.69-.64,3.32-1.84,4.51-1.15,1.21-2.74,1.88-4.41,1.86-1.7.03-3.33-.66-4.5-1.9-1.22-1.22-1.89-2.89-1.86-4.62,0-3.48,2.81-6.3,6.29-6.31m-4.95,16.24h9.89v39.44h-9.89v-39.44Z" style="fill:#fff;"/><path id="Path_1503" d="m376.92,773.18h9.9v4.04c1.82-1.62,3.88-2.95,6.1-3.95,1.77-.73,3.67-1.11,5.59-1.11,3.74-.07,7.35,1.41,9.96,4.09,2.48,2.83,3.72,6.54,3.44,10.3v26.06h-9.78v-17.28c.13-3.14-.09-6.28-.64-9.38-.32-1.39-1.1-2.63-2.21-3.53-1.12-.83-2.49-1.26-3.88-1.21-1.92-.04-3.77.69-5.16,2.01-1.53,1.51-2.57,3.45-2.98,5.56-.39,2.65-.54,5.33-.45,8v15.82h-9.9v-39.43Z" style="fill:#fff;"/><path id="Path_1504" d="m461.59,795.77h-31.82c.35,2.61,1.66,4.99,3.68,6.69,2.17,1.71,4.87,2.59,7.63,2.48,3.58.06,7.02-1.34,9.55-3.88l8.34,3.91c-1.89,2.78-4.46,5.04-7.46,6.54-3.24,1.49-6.77,2.21-10.33,2.12-5.63.22-11.1-1.9-15.12-5.86-3.88-3.88-5.99-9.18-5.84-14.66-.18-5.58,1.92-11,5.81-15,3.81-3.95,9.11-6.11,14.59-5.96,5.66-.22,11.16,1.95,15.15,5.96,4,4.25,6.1,9.93,5.84,15.75l-.02,1.9Zm-9.9-7.79c-.64-2.18-2-4.07-3.87-5.36-1.95-1.39-4.3-2.11-6.7-2.07-2.61-.05-5.17.77-7.27,2.32-1.61,1.38-2.86,3.13-3.64,5.11h21.48Z" style="fill:#fff;"/><path id="Path_1505" d="m470.8,757.96h9.13v5c.24,5.56-1.59,11.02-5.15,15.31l-3.56-2.78c.76-1.07,1.42-2.2,1.97-3.38.51-1.22.93-2.49,1.25-3.77h-3.66v-10.37Z" style="fill:#fff;"/><path id="Path_1506" d="m515.69,778.7l-6.13,6.13c-1.7-2.06-4.13-3.39-6.78-3.7-.92-.05-1.84.19-2.61.7-.59.39-.94,1.05-.95,1.76,0,.55.22,1.07.6,1.47.88.76,1.88,1.37,2.95,1.82l3.64,1.82c3.03,1.29,5.72,3.26,7.86,5.76,3.41,4.92,2.68,11.6-1.72,15.66-2.87,2.45-6.58,3.71-10.35,3.51-5.42.16-10.57-2.36-13.77-6.74l6.09-6.63c1.15,1.34,2.53,2.45,4.09,3.28,1.26.75,2.69,1.18,4.15,1.25,1.13.06,2.24-.28,3.16-.94.72-.49,1.17-1.3,1.2-2.17,0-1.52-1.44-3-4.31-4.46l-3.34-1.67c-6.38-3.21-9.57-7.24-9.55-12.07-.03-3.07,1.29-5.99,3.61-8,2.53-2.26,5.84-3.45,9.23-3.31,5.12-.03,9.94,2.4,12.98,6.52" style="fill:#fff;"/><path id="Path_1507" d="m27.56,837.38l-3.52,3.36c-2.03-2.37-4.98-3.75-8.1-3.8-4.9-.07-8.93,3.85-8.99,8.75,0,.08,0,.16,0,.24-.03,1.64.37,3.26,1.15,4.7.76,1.36,1.89,2.48,3.26,3.23,1.43.79,3.04,1.19,4.67,1.17,1.38.02,2.75-.26,4.01-.82,1.49-.75,2.85-1.76,3.99-2.98l3.41,3.57c-1.59,1.65-3.47,3-5.55,3.97-1.89.77-3.92,1.15-5.96,1.11-3.77.14-7.42-1.28-10.11-3.92-2.64-2.66-4.07-6.29-3.94-10.04-.05-2.47.57-4.9,1.79-7.04,1.23-2.09,3-3.8,5.13-4.96,2.2-1.24,4.68-1.88,7.2-1.87,4.44.01,8.65,1.95,11.54,5.32" style="fill:#fff;"/><path id="Path_1508" d="m47.22,839.62h4.91v19.59h-4.91v-2.07c-.83.83-1.81,1.49-2.89,1.97-.99.41-2.06.62-3.14.6-2.51,0-4.9-1.06-6.56-2.94-1.85-1.98-2.85-4.61-2.77-7.32-.11-2.73.85-5.4,2.68-7.43,1.64-1.87,4.02-2.93,6.51-2.9,1.14,0,2.26.22,3.31.67,1.07.47,2.04,1.15,2.86,2v-2.16Zm-5.17,4.03c-1.44-.04-2.82.55-3.79,1.61-1.03,1.13-1.57,2.61-1.51,4.13-.06,1.54.5,3.04,1.54,4.18.96,1.07,2.34,1.66,3.78,1.64,1.45.04,2.85-.55,3.84-1.61,1.05-1.15,1.59-2.67,1.53-4.22.07-1.53-.48-3.02-1.53-4.14-1-1.05-2.41-1.63-3.86-1.59" style="fill:#fff;"/><path id="Path_1509" d="m59.02,832.4h4.91v7.22h2.91v4.23h-2.91v15.36h-4.91v-15.36h-2.52v-4.23h2.52v-7.22Z" style="fill:#fff;"/><path id="Path_1510" d="m70.83,832.06h4.88v9.55c.86-.77,1.84-1.4,2.9-1.86.93-.4,1.94-.61,2.95-.62,1.85-.04,3.63.69,4.91,2.02,1.23,1.42,1.84,3.26,1.71,5.13v12.94h-4.84v-8.59c.06-1.54-.05-3.09-.33-4.61-.15-.71-.54-1.36-1.11-1.82-.56-.41-1.24-.62-1.93-.6-.95-.02-1.87.33-2.57.99-.75.73-1.27,1.67-1.49,2.7-.19,1.33-.27,2.68-.22,4.03v7.87h-4.87v-27.14Z" style="fill:#fff;"/><path id="Path_1511" d="m103.47,839.11c1.83,0,3.63.47,5.21,1.39,1.59.89,2.91,2.19,3.81,3.76.9,1.56,1.38,3.33,1.36,5.13.01,1.82-.46,3.61-1.36,5.19-.89,1.57-2.18,2.88-3.76,3.77-1.59.91-3.4,1.38-5.24,1.36-2.71.04-5.32-1.04-7.2-3-4.02-4.08-3.98-10.66.11-14.68.09-.09.18-.17.27-.26,1.84-1.72,4.27-2.68,6.79-2.66m.08,4.63c-1.44-.04-2.83.54-3.81,1.6-1.04,1.1-1.59,2.58-1.53,4.09-.07,1.53.47,3.02,1.5,4.14.99,1.05,2.37,1.63,3.81,1.59,1.45.04,2.85-.54,3.84-1.6,2.04-2.36,2.05-5.85.03-8.22-1-1.05-2.4-1.62-3.85-1.58" style="fill:#fff;"/><rect id="Rectangle_350" x="118.65" y="832.06" width="4.91" height="27.15" style="fill:#fff;"/><path id="Path_1512" d="m131.27,831.55c.84,0,1.64.33,2.22.94.6.6.93,1.42.91,2.27.02.84-.31,1.65-.91,2.24-.57.6-1.37.92-2.19.91-.85.01-1.66-.33-2.24-.95-.6-.61-.93-1.44-.91-2.3,0-1.73,1.39-3.13,3.12-3.13m-2.45,8.06h4.91v19.59h-4.91v-19.59Z" style="fill:#fff;"/><path id="Path_1513" d="m158.71,843.58l-4.09,2.27c-1.22-1.44-3.04-2.23-4.92-2.14-1.65-.07-3.25.52-4.46,1.64-1.14,1.1-1.76,2.63-1.7,4.21-.05,1.53.54,3.02,1.64,4.09,1.17,1.08,2.72,1.65,4.31,1.58,1.98.1,3.88-.75,5.14-2.27l3.88,2.66c-4.33,4.97-11.87,5.49-16.84,1.16-.05-.04-.09-.08-.14-.13-3.96-3.99-3.94-10.43.05-14.39.71-.71,1.53-1.31,2.41-1.78,1.75-.93,3.71-1.39,5.7-1.36,1.81-.03,3.61.37,5.24,1.16,1.53.76,2.84,1.9,3.8,3.3" style="fill:#fff;"/><path id="Path_1514" d="m204.87,837.38l-3.52,3.36c-2.03-2.37-4.98-3.75-8.1-3.8-4.9-.07-8.93,3.85-8.99,8.75,0,.08,0,.16,0,.24-.03,1.64.37,3.26,1.15,4.7.76,1.36,1.89,2.48,3.26,3.23,1.43.79,3.04,1.19,4.67,1.17,1.38.02,2.75-.26,4.01-.82,1.49-.75,2.85-1.76,3.99-2.98l3.41,3.57c-1.59,1.65-3.47,3-5.55,3.97-1.89.77-3.92,1.15-5.96,1.11-3.77.14-7.42-1.28-10.11-3.92-2.64-2.66-4.06-6.29-3.93-10.03-.05-2.47.57-4.9,1.79-7.04,1.23-2.09,3-3.8,5.13-4.96,2.2-1.24,4.68-1.88,7.2-1.87,4.44.01,8.65,1.95,11.54,5.32" style="fill:#fff;"/><path id="Path_1515" d="m219.26,839.11c1.83,0,3.63.47,5.21,1.39,1.59.89,2.91,2.19,3.81,3.76.9,1.56,1.38,3.33,1.36,5.13.01,1.82-.46,3.61-1.36,5.19-.89,1.57-2.18,2.88-3.76,3.77-1.59.91-3.4,1.38-5.24,1.36-2.71.04-5.32-1.04-7.2-3-4.02-4.09-3.97-10.66.12-14.68.09-.08.17-.17.26-.25,1.84-1.72,4.27-2.68,6.79-2.66m.08,4.63c-1.44-.04-2.83.54-3.81,1.6-1.04,1.1-1.59,2.58-1.53,4.09-.07,1.53.47,3.02,1.5,4.14.99,1.05,2.37,1.63,3.81,1.59,1.45.04,2.85-.54,3.84-1.6,2.04-2.36,2.05-5.85.03-8.22-1-1.05-2.4-1.62-3.85-1.58" style="fill:#fff;"/><rect id="Rectangle_351" x="234.46" y="832.06" width="4.91" height="27.15" style="fill:#fff;"/><rect id="Rectangle_352" x="244.62" y="832.06" width="4.91" height="27.15" style="fill:#fff;"/><path id="Path_1516" d="m274.95,850.84h-15.79c.17,1.29.82,2.48,1.82,3.32,1.07.85,2.42,1.29,3.79,1.24,1.77.02,3.48-.67,4.73-1.93l4.14,1.95c-.94,1.38-2.22,2.5-3.71,3.25-1.61.74-3.36,1.1-5.13,1.05-2.8.11-5.51-.94-7.51-2.91-1.93-1.92-2.98-4.55-2.9-7.27-.09-2.77.96-5.46,2.89-7.45,1.89-1.96,4.52-3.03,7.25-2.96,2.81-.11,5.54.96,7.52,2.96,1.99,2.11,3.03,4.93,2.9,7.82v.92Zm-4.91-3.87c-.32-1.08-1-2.02-1.92-2.66-.97-.69-2.13-1.05-3.32-1.03-1.3-.02-2.57.38-3.61,1.15-.81.68-1.43,1.55-1.82,2.54h10.67Z" style="fill:#fff;"/><path id="Path_1517" d="m294.73,839.62h4.89v16.78c.21,2.6-.5,5.18-2,7.31-2.07,2.24-5.04,3.41-8.08,3.18-1.64.04-3.28-.2-4.85-.72-1.25-.44-2.38-1.17-3.31-2.11-.92-.96-1.6-2.13-2-3.4h5.42c.5.57,1.14,1,1.85,1.25.86.3,1.77.44,2.68.42,1.09.05,2.18-.16,3.18-.61.72-.33,1.32-.89,1.7-1.58.4-1.07.57-2.21.5-3.35-.77.8-1.7,1.43-2.73,1.86-1.03.39-2.12.58-3.22.56-2.52.04-4.95-.99-6.66-2.85-3.69-4.23-3.62-10.55.16-14.69,1.64-1.66,3.89-2.59,6.23-2.56,1.09,0,2.17.2,3.18.62,1.12.49,2.14,1.18,3.02,2.04l.03-2.16Zm-5.1,4.09c-1.44-.04-2.83.52-3.84,1.55-1.01,1.05-1.56,2.46-1.51,3.92-.06,1.49.5,2.94,1.55,4.01,1.02,1.04,2.43,1.61,3.89,1.57,1.42.05,2.79-.51,3.77-1.53,1.02-1.08,1.55-2.53,1.49-4.02.06-1.47-.48-2.91-1.49-3.98-1.01-1.03-2.41-1.58-3.85-1.53" style="fill:#fff;"/><path id="Path_1518" d="m325.55,850.84h-15.79c.17,1.29.82,2.48,1.82,3.32,1.07.85,2.42,1.29,3.79,1.24,1.77.02,3.48-.67,4.73-1.93l4.14,1.95c-.94,1.38-2.22,2.5-3.71,3.25-1.61.74-3.36,1.1-5.13,1.05-2.8.11-5.51-.94-7.51-2.91-1.93-1.92-2.98-4.55-2.9-7.27-.09-2.77.96-5.46,2.89-7.45,1.89-1.96,4.52-3.03,7.25-2.96,2.81-.11,5.54.96,7.52,2.96,1.99,2.11,3.03,4.93,2.9,7.82v.92Zm-4.91-3.87c-.32-1.08-1-2.02-1.92-2.66-.97-.69-2.13-1.05-3.32-1.03-1.3-.02-2.57.38-3.61,1.15-.81.68-1.43,1.55-1.82,2.54h10.67Z" style="fill:#fff;"/><path id="Path_1519" d="m360.82,836.33l-3.73,3.3c-.82-1.5-2.31-2.52-4.01-2.73-.59-.02-1.16.16-1.62.53-.38.28-.62.72-.63,1.2,0,.46.17.9.45,1.26,1.15,1.22,2.38,2.36,3.7,3.4,1.92,1.61,3.09,2.62,3.5,3.05.89.85,1.63,1.85,2.17,2.96.43.97.65,2.02.64,3.09.05,2.04-.78,4-2.27,5.38-1.6,1.45-3.71,2.22-5.87,2.12-1.74.05-3.46-.43-4.93-1.36-1.56-1.11-2.8-2.61-3.6-4.36l4.24-2.56c1.27,2.34,2.74,3.51,4.4,3.51.8.02,1.57-.24,2.18-.75.54-.42.87-1.06.88-1.75-.01-.66-.25-1.3-.67-1.82-.88-1.02-1.86-1.94-2.94-2.75-2.1-1.56-3.98-3.4-5.59-5.46-.79-1.12-1.23-2.45-1.26-3.83-.01-1.8.75-3.53,2.1-4.72,1.4-1.31,3.26-2.02,5.18-1.97,1.31,0,2.61.31,3.78.91,1.49.86,2.81,2,3.88,3.35" style="fill:#fff;"/><path id="Path_1520" d="m368.8,831.55c.84,0,1.64.33,2.22.94.6.6.93,1.42.91,2.27.02.84-.31,1.65-.91,2.24-.57.59-1.37.92-2.19.91-.84.01-1.65-.33-2.23-.95-.6-.61-.93-1.44-.91-2.3,0-1.73,1.4-3.13,3.12-3.13m-2.46,8.08h4.91v19.59h-4.91v-19.59Z" style="fill:#fff;"/><path id="Path_1521" d="m377.05,839.62h4.91v2c.9-.81,1.93-1.47,3.03-1.96.88-.36,1.82-.55,2.78-.55,1.86-.03,3.65.7,4.94,2.04,1.23,1.41,1.85,3.25,1.71,5.11v12.94h-4.86v-8.58c.06-1.56-.04-3.12-.31-4.66-.16-.69-.55-1.31-1.1-1.75-.56-.41-1.24-.62-1.93-.6-.95-.02-1.87.34-2.56,1-.76.75-1.28,1.71-1.48,2.76-.19,1.32-.26,2.65-.22,3.97v7.86h-4.91v-19.59Z" style="fill:#fff;"/><path id="Path_1522" d="m414.98,839.62h4.9v16.78c.21,2.6-.5,5.18-2,7.31-2.07,2.24-5.04,3.41-8.08,3.18-1.64.04-3.28-.2-4.85-.72-1.25-.44-2.38-1.17-3.31-2.11-.92-.96-1.6-2.13-2-3.4h5.42c.5.57,1.14,1,1.85,1.25.86.3,1.77.44,2.68.42,1.09.05,2.18-.16,3.18-.61.72-.33,1.32-.89,1.7-1.58.4-1.07.57-2.21.5-3.35-.77.8-1.7,1.43-2.73,1.86-1.03.39-2.12.58-3.22.56-2.52.04-4.95-.99-6.66-2.85-3.69-4.23-3.62-10.55.16-14.69,1.64-1.66,3.89-2.59,6.23-2.56,1.09,0,2.17.2,3.18.62,1.12.49,2.14,1.18,3.02,2.04l.02-2.16Zm-5.1,4.09c-1.44-.04-2.83.52-3.84,1.55-1.01,1.05-1.56,2.46-1.51,3.92-.06,1.49.5,2.94,1.55,4.01,1.02,1.04,2.43,1.61,3.89,1.57,1.42.05,2.79-.51,3.77-1.53,1.02-1.08,1.55-2.53,1.49-4.02.06-1.47-.48-2.91-1.49-3.98-1.01-1.03-2.41-1.58-3.85-1.53" style="fill:#fff;"/><rect id="Rectangle_353" x="425.64" y="832.06" width="4.91" height="27.15" style="fill:#fff;"/><path id="Path_1523" d="m455.96,850.84h-15.79c.17,1.29.82,2.48,1.82,3.32,1.07.85,2.42,1.29,3.79,1.24,1.77.02,3.48-.67,4.73-1.93l4.14,1.95c-.94,1.38-2.22,2.5-3.71,3.25-1.61.74-3.36,1.1-5.13,1.05-2.8.11-5.51-.94-7.51-2.91-1.93-1.92-2.98-4.55-2.9-7.27-.09-2.77.96-5.46,2.89-7.45,1.89-1.96,4.52-3.03,7.25-2.96,2.81-.11,5.54.96,7.52,2.96,1.99,2.11,3.03,4.93,2.9,7.82v.92Zm-4.91-3.87c-.32-1.08-1-2.02-1.92-2.66-.97-.69-2.13-1.05-3.32-1.03-1.3-.02-2.57.38-3.61,1.15-.81.68-1.43,1.55-1.82,2.54h10.67Z" style="fill:#fff;"/><path id="Path_1524" d="m461.87,832.4h4.93v7.22h2.91v4.23h-2.91v15.36h-4.91v-15.36h-2.52v-4.23h2.52v-7.22Z" style="fill:#fff;"/><path id="Path_1525" d="m482.85,839.11c1.83,0,3.63.47,5.21,1.39,1.59.89,2.91,2.19,3.81,3.76.9,1.56,1.38,3.33,1.36,5.13.01,1.82-.46,3.61-1.36,5.19-.89,1.57-2.18,2.88-3.76,3.77-1.59.91-3.4,1.38-5.24,1.36-2.71.04-5.32-1.04-7.2-3-4.02-4.09-3.97-10.66.12-14.68.09-.08.17-.17.26-.25,1.84-1.72,4.27-2.68,6.79-2.66m.08,4.63c-1.44-.04-2.83.54-3.81,1.6-1.04,1.1-1.59,2.58-1.53,4.09-.07,1.53.47,3.02,1.5,4.14.99,1.05,2.37,1.63,3.81,1.59,1.45.04,2.85-.54,3.84-1.6,2.04-2.36,2.05-5.85.03-8.22-1-1.05-2.4-1.62-3.85-1.58" style="fill:#fff;"/><path id="Path_1526" d="m498.58,839.62h4.91v2c.9-.81,1.93-1.47,3.03-1.96.88-.36,1.82-.55,2.78-.55,1.86-.03,3.65.7,4.94,2.04,1.23,1.41,1.85,3.25,1.71,5.11v12.94h-4.86v-8.58c.06-1.56-.04-3.12-.31-4.66-.16-.69-.55-1.31-1.1-1.75-.56-.41-1.24-.62-1.93-.6-.95-.02-1.87.34-2.56,1-.76.75-1.28,1.71-1.48,2.76-.19,1.32-.26,2.65-.22,3.97v7.86h-4.91v-19.59Z" style="fill:#fff;"/><path id="Path_1527" d="m13.86,889.4c.02,1.37-.17,2.73-.58,4.03-.34,1.09-.92,2.09-1.7,2.93-.77.8-1.72,1.41-2.77,1.78-1.27.43-2.6.63-3.94.6H1.3c-.19,0-.37-.08-.52-.19-.2-.17-.3-.43-.27-.7v-16.37c-.03-.26.07-.52.27-.7.15-.11.33-.18.52-.19h3.82c1.33-.03,2.66.18,3.91.63,1.01.39,1.92,1,2.66,1.79.73.8,1.29,1.75,1.62,2.78.38,1.17.56,2.39.55,3.61m-1.82.08c0-.99-.13-1.98-.4-2.94-.24-.86-.66-1.65-1.23-2.34-.58-.67-1.3-1.19-2.11-1.53-1.04-.4-2.14-.59-3.26-.55h-2.8v15.1h2.8c1.06.03,2.12-.13,3.14-.45.82-.28,1.56-.77,2.14-1.41.6-.7,1.04-1.52,1.28-2.41.31-1.13.45-2.29.43-3.46" style="fill:#fff;"/><path id="Path_1528" d="m23.32,898.46c0,.05-.01.11-.04.15-.03.05-.08.09-.14.11-.08.03-.17.06-.26.07-.14.02-.28.03-.41.03-.14,0-.27,0-.4-.03-.09-.01-.18-.04-.27-.07-.06-.02-.1-.06-.14-.11-.03-.05-.04-.1-.05-.15v-17.59c0-.06,0-.11.03-.16.04-.05.09-.09.15-.11.09-.03.18-.05.27-.07.13-.02.26-.03.39-.03.14,0,.28,0,.41.03.09.01.18.04.26.07.06.02.11.06.14.11.03.05.04.1.04.15l.02,17.6Z" style="fill:#fff;"/><path id="Path_1529" d="m46.88,889.45c.02,1.33-.15,2.65-.5,3.94-.29,1.09-.8,2.11-1.5,3-.67.83-1.53,1.49-2.51,1.91-2.25.88-4.75.9-7.01.04-.93-.4-1.75-1.03-2.38-1.82-.65-.86-1.12-1.85-1.36-2.9-.31-1.26-.47-2.56-.45-3.86-.01-1.31.15-2.61.49-3.87.29-1.08.79-2.09,1.49-2.97.68-.82,1.54-1.47,2.51-1.9,1.12-.47,2.33-.7,3.55-.67,1.17-.03,2.34.19,3.42.63.93.4,1.76,1.02,2.39,1.82.66.85,1.14,1.82,1.4,2.86.32,1.24.47,2.52.45,3.81m-1.82.15c0-1.02-.09-2.03-.3-3.02-.17-.88-.51-1.71-1-2.46-.46-.7-1.1-1.26-1.85-1.64-.89-.42-1.87-.63-2.85-.6-.98-.03-1.96.18-2.84.63-.75.4-1.4.97-1.88,1.68-.5.74-.85,1.58-1.04,2.45-.22.97-.32,1.96-.32,2.96,0,1.03.09,2.07.29,3.08.16.88.49,1.72.97,2.48.45.7,1.08,1.27,1.82,1.65.9.43,1.88.63,2.87.6,1,.03,1.99-.19,2.88-.64.76-.41,1.41-1,1.88-1.71.5-.76.84-1.6,1.02-2.48.21-.97.31-1.97.31-2.96" style="fill:#fff;"/><path id="Path_1530" d="m66.61,896.25c0,.09,0,.19,0,.28,0,.08-.02.15-.04.23-.02.06-.04.12-.08.18-.05.08-.11.15-.18.22-.18.17-.38.32-.58.45-.36.23-.74.43-1.13.6-.51.21-1.03.38-1.56.5-.64.15-1.29.22-1.95.21-1.06.01-2.12-.19-3.1-.6-.91-.39-1.72-.99-2.36-1.75-.68-.83-1.19-1.8-1.5-2.83-.71-2.56-.7-5.27.04-7.82.33-1.09.86-2.1,1.58-2.99.66-.8,1.49-1.45,2.44-1.88.99-.44,2.07-.67,3.16-.65.53,0,1.06.05,1.58.15.48.09.95.22,1.41.39.4.15.79.33,1.16.55.25.14.49.31.7.5.09.08.17.17.24.27.03.06.06.12.08.19.02.08.03.16.04.24,0,.1,0,.2,0,.3,0,.12,0,.23,0,.35-.01.09-.03.17-.07.25-.03.06-.07.12-.12.16-.05.04-.11.06-.17.06-.21-.04-.4-.14-.55-.29-.3-.23-.61-.45-.94-.64-.45-.26-.93-.47-1.42-.64-.65-.2-1.33-.3-2.01-.29-.81,0-1.61.16-2.34.51-.72.35-1.34.87-1.82,1.51-.55.74-.95,1.57-1.19,2.45-.3,1.09-.45,2.22-.43,3.35-.02,1.08.12,2.17.39,3.21.22.85.61,1.66,1.14,2.36.48.63,1.1,1.14,1.82,1.47.78.35,1.63.52,2.48.5.67.01,1.34-.08,1.99-.29.5-.17.99-.38,1.45-.64.34-.2.67-.41.99-.64.17-.15.37-.25.6-.29.05,0,.1.01.14.04.04.03.07.07.09.12.03.08.05.16.05.25.02.13.02.25.02.38" style="fill:#fff;"/><path id="Path_1531" d="m83.5,897.99c0,.11,0,.22-.03.32-.02.08-.05.16-.1.24-.03.06-.08.11-.15.15-.06.03-.12.05-.18.05h-8.52c-.19,0-.37-.08-.52-.19-.2-.17-.3-.43-.27-.7v-16.37c-.03-.26.07-.52.27-.7.15-.11.33-.18.52-.19h8.38c.14,0,.26.07.32.2.04.08.07.16.08.24.02.11.03.23.03.35,0,.11,0,.22-.03.32-.01.08-.04.16-.08.23-.03.06-.08.11-.14.14-.06.03-.12.05-.18.05h-7.43v6.36h6.43c.07,0,.13.01.19.05.06.03.11.08.14.14.04.07.07.15.08.24.02.11.03.23.03.35,0,.11-.01.21-.03.32-.01.08-.04.15-.08.22-.03.06-.08.1-.14.13-.06.03-.12.04-.19.04h-6.43v7.24h7.57c.06,0,.13.02.18.05.06.03.11.08.15.14.05.07.08.15.1.24.02.11.03.23.03.35" style="fill:#fff;"/><path id="Path_1532" d="m100.64,893.83c0,.74-.15,1.48-.45,2.16-.28.62-.7,1.18-1.22,1.62-.55.46-1.18.8-1.86,1.02-.76.24-1.56.36-2.36.35-.55,0-1.1-.05-1.64-.16-.46-.09-.92-.22-1.36-.39-.35-.13-.69-.28-1.02-.45-.21-.11-.4-.24-.57-.4-.1-.11-.18-.24-.22-.38-.05-.18-.08-.36-.07-.54,0-.13,0-.26.03-.39.01-.09.04-.17.08-.25.02-.06.07-.1.12-.13.05-.02.11-.03.16-.03.2.03.39.11.55.25.29.2.6.37.91.53.44.22.9.39,1.36.53.6.17,1.22.26,1.85.25.53,0,1.06-.07,1.57-.23.45-.14.87-.36,1.23-.66.35-.29.62-.66.8-1.07.2-.46.3-.95.29-1.45.02-.51-.11-1.01-.36-1.45-.25-.41-.58-.77-.96-1.06-.43-.32-.88-.6-1.36-.83-.51-.25-1.02-.5-1.55-.74-.53-.25-1.04-.52-1.55-.81-.5-.28-.95-.62-1.36-1.02-.4-.39-.73-.85-.96-1.36-.26-.59-.38-1.22-.36-1.86-.01-.65.12-1.3.38-1.89.24-.55.61-1.03,1.07-1.42.48-.41,1.04-.72,1.65-.91.68-.21,1.4-.32,2.11-.31.39,0,.78.04,1.16.11.38.07.75.17,1.12.29.32.11.64.24.94.4.2.09.38.21.55.35.11.09.19.21.23.35.02.08.03.15.04.23,0,.11,0,.22,0,.33,0,.11,0,.22,0,.33-.01.09-.03.17-.06.25-.02.06-.06.12-.1.16-.04.04-.09.05-.15.05-.17-.03-.32-.1-.45-.2-.21-.14-.45-.29-.79-.45-.36-.19-.74-.34-1.14-.45-.49-.14-.99-.21-1.5-.2-.49-.01-.98.06-1.45.22-.38.13-.73.34-1.02.61-.27.25-.48.57-.61.91-.13.35-.2.72-.2,1.09-.02.51.11,1.01.36,1.45.25.41.58.78.97,1.07.43.32.88.6,1.36.84.51.25,1.03.5,1.55.75s1.05.51,1.55.8c.5.28.95.62,1.36,1.01.4.39.73.85.97,1.36.25.58.38,1.21.36,1.85" style="fill:#fff;"/><path id="Path_1533" d="m117.84,897.99c0,.11,0,.22-.03.32-.02.08-.05.16-.09.24-.04.06-.09.11-.15.15-.06.03-.12.05-.18.05h-8.51c-.19,0-.37-.08-.52-.19-.2-.17-.3-.43-.27-.7v-16.37c-.03-.26.07-.52.27-.7.15-.11.33-.18.52-.19h8.38c.06,0,.13.01.18.05.06.04.11.09.14.15.04.08.07.16.08.24.02.11.03.23.03.35,0,.11,0,.22-.03.32-.01.08-.04.16-.08.23-.03.06-.08.11-.14.14-.06.03-.12.05-.18.05h-7.46v6.36h6.43c.07,0,.14.01.2.05.06.04.1.08.14.14.04.07.07.15.08.24.02.11.03.23.03.35,0,.11,0,.21-.03.32-.01.08-.04.15-.08.22-.03.05-.08.1-.14.13-.06.03-.13.04-.2.04h-6.43v7.24h7.58c.06,0,.13.02.18.05.06.04.11.08.15.14.05.07.08.15.09.24.02.11.03.23.03.35" style="fill:#fff;"/><path id="Path_1534" d="m150.55,889.45c.02,1.33-.15,2.65-.5,3.94-.29,1.09-.8,2.11-1.5,3-.67.83-1.53,1.49-2.51,1.91-2.25.88-4.75.9-7.01.04-.93-.4-1.75-1.03-2.38-1.82-.65-.86-1.12-1.85-1.36-2.9-.31-1.26-.47-2.56-.45-3.86-.01-1.31.15-2.61.49-3.87.29-1.08.79-2.09,1.49-2.97.68-.82,1.54-1.47,2.51-1.9,1.12-.47,2.33-.7,3.55-.67,1.17-.03,2.34.19,3.42.63.93.4,1.76,1.02,2.39,1.82.66.85,1.14,1.82,1.4,2.86.32,1.24.47,2.52.45,3.81m-1.82.15c0-1.02-.09-2.03-.3-3.02-.17-.88-.51-1.71-1-2.46-.46-.7-1.1-1.26-1.85-1.64-.89-.42-1.87-.63-2.85-.6-.98-.03-1.96.18-2.84.63-.75.4-1.4.97-1.88,1.68-.5.74-.85,1.58-1.04,2.45-.22.97-.32,1.96-.32,2.96,0,1.03.09,2.07.29,3.08.16.88.49,1.72.97,2.48.45.7,1.08,1.27,1.82,1.65.9.43,1.88.63,2.87.6,1,.03,1.99-.19,2.88-.64.76-.41,1.41-1,1.88-1.71.5-.76.84-1.6,1.02-2.48.21-.97.31-1.97.31-2.96" style="fill:#fff;"/><path id="Path_1535" d="m167.58,881.37c0,.11,0,.22-.03.32-.01.08-.04.16-.09.23-.04.06-.09.1-.15.14-.06.03-.12.05-.18.05h-7.03v6.88h6.66c.06,0,.12.01.18.04.06.02.11.07.15.12.05.07.08.14.09.22.02.12.03.23.03.35,0,.11,0,.22-.03.32-.01.08-.05.16-.09.23-.04.06-.09.1-.15.14-.05.03-.12.05-.18.05h-6.66v8c0,.06-.01.11-.04.16-.03.05-.08.09-.14.11-.08.03-.17.05-.25.07-.27.04-.55.04-.82,0-.09-.01-.18-.04-.27-.07-.06-.02-.11-.06-.14-.11-.03-.05-.04-.1-.04-.16v-16.99c-.03-.26.07-.52.27-.7.15-.11.33-.18.52-.19h7.96c.06,0,.13.02.18.05.06.04.11.09.15.15.05.07.08.16.09.24.02.11.03.23.03.35" style="fill:#fff;"/><path id="Path_1536" d="m204.38,898.46c0,.05-.01.11-.04.15-.03.05-.09.09-.15.11-.09.03-.18.06-.27.07-.14.02-.28.03-.41.03-.13,0-.26,0-.39-.03-.09-.01-.18-.04-.27-.07-.06-.02-.1-.06-.14-.11-.03-.05-.04-.1-.04-.15v-16.37h-.02l-7.14,16.47s-.05.08-.08.11c-.05.04-.1.06-.16.08-.08.03-.15.05-.23.06-.1,0-.21,0-.31,0-.11,0-.22,0-.34,0-.08-.01-.16-.03-.23-.06-.05-.02-.1-.05-.15-.08-.03-.03-.06-.07-.07-.11l-6.79-16.47h0v16.37c0,.05-.01.11-.04.15-.04.05-.09.09-.15.11-.09.03-.17.06-.26.07-.14.02-.29.03-.43.03-.13,0-.27,0-.4-.03-.09-.01-.18-.04-.26-.07-.06-.02-.1-.06-.13-.11-.03-.05-.04-.1-.04-.15v-16.99c-.03-.26.07-.52.27-.7.15-.12.33-.18.52-.19h.91c.21,0,.42.02.62.08.16.05.32.12.45.22.14.1.25.22.35.36.1.15.18.31.25.48l6,14.42h.07l6.24-14.37c.08-.2.18-.39.3-.57.09-.14.21-.27.34-.37.11-.09.24-.16.38-.2.15-.04.3-.06.45-.06h1.03c.09,0,.18.01.27.04.09.03.18.08.25.15.08.08.15.17.19.27.05.13.08.28.08.42v17Z" style="fill:#fff;"/><path id="Path_1537" d="m226.22,898.17c.05.11.08.23.08.35,0,.08-.03.15-.1.2-.08.05-.18.09-.28.09h-.94c-.09,0-.19-.03-.28-.06-.06-.02-.11-.06-.15-.11-.04-.05-.07-.11-.09-.17l-1.74-4.84h-7.98l-1.67,4.81c-.02.06-.05.12-.09.17-.04.05-.1.09-.15.12-.09.04-.18.07-.27.08-.15.02-.3.03-.45.03-.16,0-.33,0-.49-.03-.1,0-.2-.04-.29-.1-.06-.05-.09-.12-.1-.2,0-.12.03-.23.08-.34l6.36-17.28c.03-.07.07-.14.13-.19.06-.06.14-.1.22-.12.11-.03.21-.05.32-.06.14,0,.28,0,.43,0,.15,0,.3,0,.45,0,.11.01.22.03.32.06.08.02.15.06.21.12.05.05.09.12.12.19l6.34,17.27Zm-7.53-15.74h0l-3.42,9.77h6.95l-3.52-9.77Z" style="fill:#fff;"/><path id="Path_1538" d="m234.88,898.46c0,.05-.01.11-.04.15-.03.05-.08.09-.14.11-.08.03-.17.06-.26.07-.14.02-.28.03-.41.03-.14,0-.27,0-.4-.03-.09-.01-.18-.04-.27-.07-.06-.02-.1-.06-.14-.11-.03-.05-.04-.1-.05-.15v-17.59c0-.06.02-.11.05-.15.04-.05.09-.09.15-.11.09-.03.18-.05.27-.07.13-.02.26-.03.39-.03.14,0,.28,0,.41.03.09.01.18.04.26.07.06.02.11.06.14.11.03.05.04.1.04.15v17.59Z" style="fill:#fff;"/><path id="Path_1539" d="m254.84,881.37c0,.11,0,.22-.03.32-.02.08-.04.16-.09.23-.03.06-.08.11-.14.14-.06.03-.12.05-.19.05h-5.41v16.37c0,.06-.01.11-.04.16-.03.05-.08.09-.14.11-.09.03-.17.05-.26.07-.14.02-.27.03-.41.03-.14,0-.27,0-.4-.03-.09-.01-.18-.04-.27-.07-.06-.02-.11-.06-.14-.11-.03-.05-.05-.1-.05-.16v-16.37h-5.41c-.07,0-.13-.01-.19-.05-.06-.04-.1-.08-.14-.14-.04-.07-.07-.15-.08-.23-.02-.11-.03-.21-.03-.32,0-.12,0-.23.03-.35.01-.08.04-.17.08-.24.03-.06.08-.11.14-.15.06-.03.12-.05.19-.05h12.54c.14,0,.26.07.32.2.04.08.07.16.09.24.02.11.03.23.03.35" style="fill:#fff;"/><path id="Path_1540" d="m270.48,897.98c0,.11,0,.23-.03.34-.02.08-.05.16-.09.24-.03.06-.08.12-.14.15-.06.03-.13.05-.2.05h-7.87c-.19,0-.37-.07-.52-.19-.2-.17-.3-.43-.27-.7v-16.99c0-.05.02-.11.05-.15.03-.05.08-.09.14-.11.09-.03.18-.05.27-.07.27-.04.55-.04.82,0,.09.01.18.04.26.07.06.02.11.06.14.11.03.05.04.1.04.15v16.32h6.95c.07,0,.14.01.2.05.06.03.1.08.14.14.04.07.07.15.09.24.02.11.03.23.03.35" style="fill:#fff;"/><path id="Path_1541" d="m289.96,898.17c.05.11.08.23.08.35,0,.08-.03.15-.1.2-.08.05-.18.09-.28.09h-.94c-.09,0-.19-.03-.28-.06-.06-.02-.11-.06-.15-.11-.04-.05-.07-.11-.09-.17l-1.74-4.84h-7.97l-1.66,4.81c-.02.06-.05.12-.09.17-.04.05-.1.09-.15.12-.09.04-.18.07-.27.08-.15.02-.3.03-.45.03-.16,0-.33,0-.49-.03-.1,0-.2-.04-.29-.1-.06-.05-.09-.12-.1-.2,0-.12.03-.23.08-.34l6.36-17.28c.03-.07.07-.14.13-.19.06-.06.14-.1.22-.12.11-.03.21-.05.32-.06.14,0,.28,0,.43,0,.15,0,.3,0,.45,0,.11.01.22.03.32.06.08.02.15.06.21.12.05.05.09.12.12.19l6.32,17.27Zm-7.53-15.74h0l-3.42,9.77h6.92l-3.5-9.77Z" style="fill:#fff;"/><path id="Path_1542" d="m309.94,897.92c0,.14-.02.29-.08.42-.05.1-.11.2-.2.27-.08.07-.17.12-.27.15-.09.03-.18.04-.27.04h-.35c-.17,0-.34-.02-.51-.07-.17-.05-.32-.13-.45-.25-.17-.13-.32-.28-.45-.45-.18-.24-.34-.5-.49-.76l-6.4-11.34c-.32-.55-.64-1.12-.96-1.7s-.63-1.15-.91-1.7h0v15.95c0,.06-.01.11-.04.16-.03.05-.08.09-.14.11-.08.03-.17.05-.25.07-.27.04-.55.04-.82,0-.09-.01-.18-.04-.27-.07-.06-.02-.11-.06-.14-.11-.03-.05-.04-.1-.04-.16v-16.99c-.03-.26.07-.52.27-.7.15-.11.33-.18.52-.19h.7c.19,0,.38.02.56.05.15.04.28.1.4.19.14.11.26.24.35.38.14.2.27.41.39.62l4.9,8.69c.31.54.6,1.06.88,1.56l.81,1.47.78,1.43c.25.45.51.94.76,1.41h0c0-.78,0-1.6,0-2.45v-13.05c0-.05.01-.11.04-.15.03-.05.08-.09.14-.12.08-.04.17-.06.26-.07.14,0,.28,0,.41,0,.13,0,.26,0,.4,0,.09,0,.18.03.27.07.06.03.11.07.15.12.03.05.05.1.05.15v17Z" style="fill:#fff;"/><path id="Path_1543" d="m332.22,889.4c.02,1.37-.17,2.73-.58,4.03-.34,1.09-.92,2.09-1.7,2.93-.77.8-1.72,1.41-2.77,1.78-1.27.43-2.6.63-3.94.6h-3.58c-.19,0-.37-.07-.52-.19-.2-.17-.3-.43-.27-.7v-16.37c-.03-.26.07-.52.27-.7.15-.12.33-.18.52-.19h3.82c1.33-.03,2.66.18,3.91.63,1.01.39,1.92,1,2.66,1.79.73.8,1.29,1.75,1.62,2.78.38,1.17.56,2.39.55,3.61m-1.82.08c0-.99-.13-1.98-.4-2.94-.24-.86-.66-1.65-1.23-2.34-.58-.67-1.3-1.19-2.11-1.53-1.04-.4-2.14-.59-3.26-.55h-2.79v15.1h2.8c1.06.03,2.12-.13,3.14-.45.82-.28,1.56-.77,2.14-1.41.6-.7,1.04-1.52,1.28-2.41.31-1.13.45-2.29.43-3.46" style="fill:#fff;"/><path id="Path_1544" d="m363.16,897.92c0,.14-.02.29-.08.42-.04.1-.11.2-.2.27-.08.07-.17.12-.27.15-.09.03-.18.04-.27.04h-.35c-.17,0-.34-.02-.51-.07-.17-.05-.32-.13-.45-.25-.17-.13-.32-.29-.45-.45-.18-.24-.34-.5-.49-.76l-6.4-11.34c-.31-.55-.64-1.12-.96-1.7s-.63-1.15-.91-1.7h0v15.95c0,.06-.01.11-.04.16-.03.05-.08.09-.14.11-.08.03-.17.05-.25.07-.14.02-.28.03-.41.03-.14,0-.27,0-.4-.03-.09-.01-.18-.04-.27-.07-.06-.02-.11-.06-.14-.11-.03-.05-.04-.1-.04-.16v-16.99c-.03-.26.07-.52.27-.7.15-.12.33-.18.52-.19h.7c.19,0,.38.01.56.05.15.04.28.1.4.19.14.11.26.24.35.38.14.2.27.41.39.62l4.89,8.69c.31.54.6,1.06.88,1.56s.55.99.81,1.47l.78,1.43c.26.47.51.94.77,1.41h0v-15.51c0-.05.01-.11.04-.15.03-.05.08-.09.14-.12.08-.04.17-.06.26-.07.27-.03.54-.03.81,0,.09,0,.18.03.27.07.06.03.1.07.14.12.03.04.05.1.05.15v17Z" style="fill:#fff;"/><path id="Path_1545" d="m381.84,897.99c0,.11,0,.22-.03.32-.02.08-.05.16-.09.24-.04.06-.09.11-.15.15-.06.03-.12.05-.18.05h-8.51c-.19,0-.37-.08-.52-.19-.2-.17-.3-.43-.27-.7v-16.37c-.03-.26.07-.52.27-.7.15-.11.33-.18.52-.19h8.38c.06,0,.13.01.18.05.06.04.11.09.14.15.04.08.07.16.08.24.02.11.03.23.03.35,0,.11,0,.22-.03.32-.01.08-.04.16-.08.23-.03.06-.08.11-.14.14-.06.03-.12.05-.18.05h-7.45v6.36h6.43c.07,0,.14.01.2.05.06.04.1.08.14.14.04.07.07.15.08.24.02.11.03.23.03.35,0,.11,0,.21-.03.32-.01.08-.04.15-.08.22-.03.05-.08.1-.14.13-.06.03-.13.04-.2.04h-6.43v7.24h7.57c.06,0,.13.02.18.05.06.04.11.08.15.14.05.07.08.15.09.24.02.11.03.23.03.35" style="fill:#fff;"/><path id="Path_1546" d="m406.25,898.43c-.03.07-.07.14-.13.19-.07.06-.15.1-.24.12-.11.03-.22.05-.34.06-.15,0-.3,0-.45,0-.15,0-.3,0-.45,0-.12-.01-.23-.03-.34-.06-.09-.02-.17-.06-.24-.12-.06-.05-.11-.12-.13-.19l-4.29-14.92h-.03l-3.93,14.92c-.02.07-.05.14-.1.19-.06.06-.13.1-.21.12-.11.03-.21.05-.32.06-.15,0-.3,0-.45,0-.16,0-.32,0-.49,0-.12-.01-.24-.03-.36-.06-.09-.02-.17-.06-.25-.12-.06-.05-.11-.12-.13-.19l-5.15-17.28c-.04-.11-.06-.23-.07-.35,0-.08.03-.15.09-.2.08-.05.18-.09.28-.09.17,0,.33,0,.5,0,.16,0,.33,0,.49,0,.09,0,.19.03.28.06.06.02.11.06.14.11.03.05.05.11.06.17l4.55,15.91h0l4.2-15.91c.01-.06.04-.12.07-.17.04-.05.09-.09.15-.11.1-.03.19-.06.3-.06.17,0,.33,0,.5,0,.13,0,.26,0,.39,0,.08,0,.16.03.24.06.06.02.1.06.14.11.03.05.06.11.08.17l4.57,15.91h.03l4.45-15.91c.02-.06.04-.11.06-.17.03-.05.08-.09.14-.11.09-.03.18-.06.27-.06.15,0,.3,0,.45,0,.16,0,.33,0,.49.03.1,0,.19.04.27.1.06.05.1.12.1.2,0,.11-.02.23-.05.34l-5.11,17.26Z" style="fill:#fff;"/><path id="Path_1547" d="m430.65,896.25c0,.09,0,.19,0,.28,0,.08-.02.15-.04.23-.02.06-.04.12-.08.18-.05.08-.11.15-.18.22-.18.17-.38.32-.58.45-.36.23-.74.43-1.13.6-.51.21-1.03.38-1.56.5-.64.15-1.29.22-1.95.21-1.06.01-2.12-.19-3.1-.6-.91-.39-1.72-.99-2.36-1.75-.68-.83-1.19-1.8-1.5-2.83-.71-2.56-.7-5.27.04-7.82.33-1.09.86-2.1,1.58-2.99.66-.8,1.49-1.45,2.44-1.88.99-.44,2.07-.67,3.16-.65.53,0,1.06.05,1.58.15.48.09.95.22,1.41.39.4.15.79.33,1.16.55.25.14.49.31.7.5.09.08.17.17.24.27.03.06.06.12.08.19.02.08.03.16.04.24,0,.1,0,.2,0,.3,0,.12,0,.23,0,.35-.01.09-.03.17-.07.25-.03.06-.07.12-.12.16-.05.04-.11.06-.17.06-.21-.04-.4-.14-.55-.29-.3-.23-.61-.45-.94-.64-.45-.26-.93-.47-1.42-.64-.65-.2-1.33-.3-2.01-.29-.81,0-1.61.16-2.34.51-.72.35-1.34.87-1.82,1.51-.55.74-.95,1.57-1.19,2.45-.3,1.09-.45,2.22-.43,3.35-.02,1.08.12,2.17.39,3.21.22.85.61,1.66,1.14,2.36.48.63,1.1,1.14,1.82,1.47.78.35,1.63.52,2.48.5.67.01,1.34-.08,1.99-.29.5-.17.99-.38,1.45-.64.34-.2.67-.41.99-.64.17-.15.37-.25.6-.29.05,0,.1.01.14.04.04.03.07.07.09.12.03.08.05.16.05.25.02.13.02.25.02.38" style="fill:#fff;"/><path id="Path_1548" d="m450.69,898.17c.05.11.08.23.08.35,0,.08-.03.15-.1.2-.08.05-.18.09-.28.09h-.94c-.09,0-.19-.03-.28-.06-.06-.02-.11-.06-.15-.11-.04-.05-.07-.11-.09-.17l-1.74-4.84h-7.97l-1.67,4.81c-.02.06-.05.12-.09.17-.04.05-.1.09-.15.12-.09.04-.18.07-.27.08-.15.02-.3.03-.45.03-.16,0-.33,0-.49-.03-.1,0-.2-.04-.29-.1-.06-.05-.09-.12-.1-.2,0-.12.03-.23.08-.34l6.36-17.28c.03-.07.07-.14.13-.19.06-.06.14-.1.22-.12.11-.03.21-.05.32-.06.14,0,.28,0,.43,0,.15,0,.3,0,.45,0,.11.01.22.03.32.06.08.02.15.06.21.12.05.05.09.12.12.19l6.33,17.27Zm-7.53-15.74h0l-3.42,9.77h6.95l-3.52-9.77Z" style="fill:#fff;"/><path id="Path_1549" d="m466.83,893.83c0,.74-.15,1.48-.45,2.16-.28.62-.7,1.18-1.22,1.62-.55.46-1.18.8-1.86,1.02-.76.24-1.56.36-2.36.35-.55,0-1.1-.05-1.64-.16-.46-.09-.92-.22-1.36-.39-.35-.13-.69-.28-1.02-.45-.21-.11-.4-.24-.57-.4-.1-.11-.18-.24-.22-.38-.05-.18-.08-.36-.07-.54,0-.13,0-.26.03-.39.01-.09.04-.17.08-.25.02-.06.07-.1.12-.13.05-.02.11-.03.16-.03.2.03.39.11.55.25.29.2.6.37.91.53.44.21.9.39,1.36.53.6.17,1.22.26,1.85.25.53,0,1.06-.07,1.57-.23.45-.14.87-.36,1.23-.66.35-.29.62-.66.8-1.07.2-.46.3-.95.29-1.45.02-.51-.11-1.01-.36-1.45-.25-.41-.58-.77-.96-1.06-.43-.32-.88-.6-1.36-.83-.51-.25-1.02-.5-1.55-.74-.53-.25-1.04-.52-1.55-.81-.5-.28-.95-.62-1.36-1.02-.4-.39-.73-.85-.96-1.36-.26-.59-.38-1.22-.36-1.86-.01-.65.12-1.3.38-1.89.24-.55.61-1.03,1.07-1.42.48-.41,1.04-.72,1.65-.91.68-.21,1.4-.32,2.11-.31.39,0,.78.04,1.16.11.38.07.75.17,1.12.29.32.11.63.24.94.4.2.09.38.21.55.35.11.09.19.21.23.35.02.08.03.15.04.23,0,.11,0,.22,0,.33,0,.11,0,.22,0,.33-.01.09-.03.17-.06.25-.02.06-.06.12-.1.16-.04.04-.09.05-.15.05-.17-.03-.32-.1-.45-.2-.21-.14-.45-.29-.79-.45-.36-.19-.74-.34-1.14-.45-.49-.14-.99-.21-1.5-.2-.49-.01-.98.06-1.45.22-.38.13-.73.34-1.02.61-.27.25-.48.57-.61.91-.13.35-.2.72-.2,1.09-.02.51.11,1.01.36,1.45.25.41.58.78.97,1.07.43.32.88.6,1.36.84.51.25,1.03.5,1.55.75s1.05.51,1.55.8c.5.28.95.62,1.36,1.01.4.39.73.85.97,1.36.25.58.38,1.21.36,1.85" style="fill:#fff;"/><path id="Path_1550" d="m485.29,881.37c0,.11,0,.22-.03.32-.02.08-.04.16-.09.23-.03.06-.08.11-.14.14-.06.03-.12.05-.19.05h-5.41v16.37c0,.06-.01.11-.04.16-.03.05-.08.09-.14.11-.09.03-.17.05-.26.07-.14.02-.27.03-.41.03-.14,0-.27,0-.4-.03-.09-.01-.18-.04-.27-.07-.06-.02-.11-.06-.14-.11-.03-.05-.05-.1-.05-.16v-16.37h-5.41c-.07,0-.13-.01-.19-.05-.06-.04-.1-.08-.14-.14-.04-.07-.07-.15-.08-.23-.02-.11-.03-.21-.03-.32,0-.12,0-.23.03-.35.01-.08.04-.17.08-.24.03-.06.08-.11.14-.15.06-.03.12-.05.19-.05h12.54c.14,0,.26.07.32.2.04.08.07.16.09.24.02.11.03.23.03.35" style="fill:#fff;"/><path id="Path_1551" d="m500.94,897.98c0,.11,0,.23-.03.34-.02.08-.05.16-.09.24-.03.06-.08.12-.14.15-.06.03-.13.05-.2.05h-7.89c-.19,0-.37-.08-.52-.19-.2-.17-.3-.43-.27-.7v-16.99c0-.05.02-.11.05-.15.03-.05.08-.09.14-.11.09-.03.18-.05.27-.07.27-.04.55-.04.82,0,.09.01.18.04.26.07.06.02.11.06.14.11.03.05.04.1.04.15v16.32h6.95c.07,0,.14.01.2.05.06.03.1.08.14.14.04.07.07.15.09.24.02.11.03.23.03.35" style="fill:#fff;"/><path id="Path_1552" d="m517.26,897.99c0,.11,0,.22-.03.32-.02.08-.05.16-.09.24-.04.06-.09.11-.15.15-.06.03-.12.05-.18.05h-8.52c-.19,0-.37-.08-.52-.19-.2-.17-.3-.43-.27-.7v-16.37c-.03-.26.07-.52.27-.7.15-.11.33-.18.52-.19h8.38c.06,0,.13.01.18.05.06.04.11.09.14.15.04.08.07.16.08.24.02.11.03.23.03.35,0,.11,0,.22-.03.32-.01.08-.04.16-.08.23-.03.06-.08.11-.14.14-.06.03-.12.05-.18.05h-7.45v6.36h6.43c.07,0,.14.01.2.05.06.04.1.08.14.14.04.07.07.15.08.24.02.11.03.23.03.35,0,.11,0,.21-.03.32-.01.08-.04.15-.08.22-.03.05-.08.1-.14.13-.06.03-.13.04-.2.04h-6.43v7.24h7.58c.06,0,.13.02.18.05.06.04.11.08.15.14.05.07.08.15.09.24.02.11.03.23.03.35" style="fill:#fff;"/></g></g></g></svg>